PathFileType	4	(X/Y/Z)	OpenSim_Sub08_EMGStiffKnee_Magnet.trc
DataRate	CameraRate	NumFrames	NumMarkers	Units	OrigDataRate	OrigDataStartFrame	OrigNumFrames
100	100	16	8	m	100	2363	6301
Frame#	Time	torso_imu_offset_imu	pelvis_imu_offset_imu	tibia_r_imu_offset_imu	femur_r_imu_offset_imu	tibia_l_imu_offset_imu	femur_l_imu_offset_imu	toes_r_imu_offset_imu	toes_l_imu_offset_imu
				X1	Y1	Z1	X2	Y2	Z2	X3	Y3	Z3	X4	Y4	Z4	X5	Y5	Z5	X6	Y6	Z6	X7	Y7	Z7	X8		Y8	Z8	

2363	23.62000000	-0.93029970	-0.16064117	0.11055721	-0.61012023	0.20055221	-0.69914990	-0.26974756	-0.78266241	-0.05153825	-0.64028607	-0.55062300	-0.12313847	-0.68424922	0.32901761	0.31411890	-0.73704834	0.11348504	0.36945535	-0.83295173	-0.37867658	-0.13104901	-0.71731070	-0.18954169	-0.35765722
2364	23.63000000	-0.93164668	-0.15824869	0.10537460	-0.60989792	0.19680236	-0.70779999	-0.27537836	-0.78237910	-0.06144899	-0.63875457	-0.55526639	-0.12042088	-0.67369669	0.33001272	0.32239327	-0.73717669	0.11139950	0.37545991	-0.82767456	-0.38916377	-0.14274488	-0.71912431	-0.18923715	-0.35611738
2365	23.64000000	-0.92586218	-0.15865060	0.09960456	-0.60703941	0.20256462	-0.70039201	-0.28246878	-0.77567468	-0.07947085	-0.64497005	-0.55942844	-0.11119788	-0.67599499	0.32834867	0.32203101	-0.73273611	0.11632971	0.37341696	-0.82371362	-0.40122841	-0.17137885	-0.71692270	-0.18731228	-0.35184801
2366	23.65000000	-0.93264843	-0.16074984	0.10450550	-0.59623927	0.19913335	-0.70085986	-0.29578077	-0.76931475	-0.09100063	-0.64409801	-0.56090025	-0.10920342	-0.67153622	0.33278297	0.32713002	-0.72830921	0.12317952	0.38293614	-0.80252531	-0.41348059	-0.18600152	-0.71670627	-0.18956896	-0.35217989
2367	23.66000000	-0.93168600	-0.16061769	0.10611112	-0.59821314	0.21007701	-0.70109873	-0.31267388	-0.76078124	-0.10879161	-0.64031491	-0.55916518	-0.10710031	-0.66921126	0.33536191	0.33512395	-0.71972474	0.13463723	0.38949419	-0.78915720	-0.43150075	-0.21965283	-0.71429448	-0.18952827	-0.35466067
2368	23.67000000	-0.92754500	-0.16064941	0.10665882	-0.60669619	0.21379613	-0.70174793	-0.32724360	-0.75289783	-0.11264545	-0.64287351	-0.56094420	-0.10706496	-0.66252977	0.34414595	0.33217016	-0.71658847	0.15018537	0.39506086	-0.76866081	-0.44250906	-0.24637031	-0.71532427	-0.18903155	-0.35922219
2369	23.68000000	-0.92774194	-0.16065468	0.11029177	-0.60579678	0.22009631	-0.70346248	-0.33993660	-0.74866932	-0.11723425	-0.64497919	-0.55632893	-0.10771494	-0.65814831	0.34852714	0.33732239	-0.71673079	0.16464567	0.38796480	-0.75993348	-0.45312779	-0.27400941	-0.72107762	-0.18523268	-0.35546057
2370	23.69000000	-0.92789344	-0.16059966	0.10671837	-0.60180955	0.22410226	-0.69668671	-0.35529005	-0.74262614	-0.11702004	-0.64977918	-0.55256097	-0.11454578	-0.65179372	0.35762067	0.34249414	-0.71287012	0.17169724	0.39155561	-0.74008856	-0.46612245	-0.28905183	-0.71200308	-0.18942798	-0.34576967
2371	23.70000000	-0.93000531	-0.15789359	0.11491185	-0.59969668	0.22907661	-0.69722353	-0.37412107	-0.74036971	-0.11796829	-0.65778200	-0.55025541	-0.11481755	-0.64752680	0.36347339	0.33823758	-0.71572382	0.18632612	0.39670386	-0.72434432	-0.46504559	-0.32020354	-0.71515276	-0.18765914	-0.35731242
2372	23.71000000	-0.92747701	-0.15460548	0.11101925	-0.59330739	0.24159240	-0.69524189	-0.38851860	-0.72916694	-0.12785251	-0.65802014	-0.54149511	-0.11950302	-0.64315985	0.36629614	0.34713181	-0.71313573	0.19109577	0.38488415	-0.71875467	-0.46457040	-0.33827872	-0.71726786	-0.19382285	-0.35368195
2373	23.72000000	-0.92354977	-0.16092198	0.12173514	-0.59290499	0.24515177	-0.69542854	-0.39975814	-0.71688413	-0.13969146	-0.66501007	-0.53366707	-0.12025422	-0.64177367	0.37720751	0.34626056	-0.70970782	0.20583769	0.38333298	-0.71240174	-0.45584889	-0.35943240	-0.72128999	-0.18949972	-0.34938983
2374	23.73000000	-0.92562325	-0.16095305	0.11589283	-0.60332742	0.24952852	-0.69329086	-0.41647805	-0.70652946	-0.15650325	-0.67141555	-0.52684680	-0.12972280	-0.64109425	0.38149684	0.34792068	-0.70917634	0.20791740	0.38044498	-0.70386542	-0.45200574	-0.37527616	-0.71664793	-0.19393459	-0.34817360
2375	23.74000000	-0.92283372	-0.16464288	0.13132686	-0.59810136	0.25336151	-0.69641224	-0.42233203	-0.69581570	-0.17867300	-0.68290504	-0.51271473	-0.13239029	-0.63015453	0.38751008	0.34594406	-0.70378757	0.22206240	0.37403670	-0.69616438	-0.44767080	-0.38805388	-0.71919972	-0.19172923	-0.35420389
2376	23.75000000	-0.91917290	-0.16071304	0.12836375	-0.59667502	0.25596927	-0.70056620	-0.43232935	-0.68311609	-0.18983913	-0.69729411	-0.50378451	-0.14242564	-0.62853158	0.38837647	0.35468406	-0.70827703	0.23416324	0.37692166	-0.69152492	-0.44298328	-0.40726336	-0.71891582	-0.19356537	-0.34986242
2377	23.76000000	-0.92122992	-0.16490931	0.13316516	-0.59702656	0.26441369	-0.69603069	-0.45155346	-0.67038101	-0.20099814	-0.70388227	-0.48577946	-0.14948401	-0.62669916	0.40119840	0.35050511	-0.69884466	0.23808106	0.38130247	-0.67721055	-0.43516167	-0.42580862	-0.71942699	-0.18966497	-0.35450889
2378	23.77000000	-0.92166695	-0.16247895	0.13557014	-0.59690451	0.26786798	-0.69624680	-0.46430179	-0.65622801	-0.20871286	-0.71229576	-0.48199685	-0.14896315	-0.62634315	0.40103758	0.34751280	-0.69548254	0.24290972	0.38273355	-0.67102906	-0.43440465	-0.44229399	-0.72121992	-0.19645089	-0.35438924
